{
    "asset" : {
        "generator" : "Khronos glTF Blender I/O v3.2.43",
        "version" : "2.0"
    },
    "scene" : 0,
    "scenes" : [
        {
            "name" : "Scene",
            "nodes" : [
                0
            ]
        }
    ],
    "nodes" : [
        {
            "mesh" : 0,
            "name" : "Plane",
            "rotation" : [
                0.7071068286895752,
                0,
                0,
                0.7071068286895752
            ],
            "translation" : [
                -0.00022101402282714844,
                -0.3333333432674408,
                -0.043428774923086166
            ]
        }
    ],
    "meshes" : [
        {
            "name" : "Plane",
            "primitives" : [
                {
                    "attributes" : {
                        "POSITION" : 0,
                        "NORMAL" : 1,
                        "TEXCOORD_0" : 2
                    },
                    "indices" : 3
                }
            ]
        }
    ],
    "accessors" : [
        {
            "bufferView" : 0,
            "componentType" : 5126,
            "count" : 178,
            "max" : [
                0.9462365508079529,
                0.20434246957302094,
                0.6666666865348816
            ],
            "min" : [
                -0.945851743221283,
                -0.12928350269794464,
                -1.2254359722137451
            ],
            "type" : "VEC3"
        },
        {
            "bufferView" : 1,
            "componentType" : 5126,
            "count" : 178,
            "type" : "VEC3"
        },
        {
            "bufferView" : 2,
            "componentType" : 5126,
            "count" : 178,
            "type" : "VEC2"
        },
        {
            "bufferView" : 3,
            "componentType" : 5123,
            "count" : 288,
            "type" : "SCALAR"
        }
    ],
    "bufferViews" : [
        {
            "buffer" : 0,
            "byteLength" : 2136,
            "byteOffset" : 0
        },
        {
            "buffer" : 0,
            "byteLength" : 2136,
            "byteOffset" : 2136
        },
        {
            "buffer" : 0,
            "byteLength" : 1424,
            "byteOffset" : 4272
        },
        {
            "buffer" : 0,
            "byteLength" : 576,
            "byteOffset" : 5696
        }
    ],
    "buffers" : [
        {
            "byteLength" : 6272,
            "uri" : "data:application/octet-stream;base64,"
        }
    ]
}
